<mxfile host="app.diagrams.net" modified="2023-06-14T23:25:20.436Z" agent="Mozilla/5.0 (Windows NT 10.0; Win64; x64) AppleWebKit/537.36 (KHTML, like Gecko) Chrome/114.0.0.0 Safari/537.36" etag="rhfsbc4c4DYuPJR223bq" version="21.3.8" type="github">
  <diagram name="Page-1" id="NosOBeBRORzggEyvNphH">
    <mxGraphModel dx="548" dy="319" grid="1" gridSize="10" guides="1" tooltips="1" connect="1" arrows="1" fold="1" page="1" pageScale="1" pageWidth="827" pageHeight="1169" math="0" shadow="0">
      <root>
        <mxCell id="0" />
        <mxCell id="1" parent="0" />
        <mxCell id="e4buspF491HjGyTyYgJ6-1" value="Animal" style="swimlane;whiteSpace=wrap;html=1;" vertex="1" parent="1">
          <mxGeometry x="280" y="40" width="150" height="110" as="geometry" />
        </mxCell>
        <mxCell id="e4buspF491HjGyTyYgJ6-7" value="- &lt;b&gt;String&lt;/b&gt; tipoAnimal&lt;br&gt;- &lt;b&gt;String&lt;/b&gt; especieAnimal" style="text;html=1;align=left;verticalAlign=middle;resizable=0;points=[];autosize=1;strokeColor=none;fillColor=none;" vertex="1" parent="e4buspF491HjGyTyYgJ6-1">
          <mxGeometry x="8" y="30" width="150" height="40" as="geometry" />
        </mxCell>
        <mxCell id="e4buspF491HjGyTyYgJ6-9" value="&lt;font style=&quot;font-size: 10px;&quot;&gt;+ comer(&lt;b&gt;String&lt;/b&gt; tipoComida)&lt;/font&gt;" style="text;html=1;align=left;verticalAlign=middle;resizable=0;points=[];autosize=1;strokeColor=none;fillColor=none;" vertex="1" parent="e4buspF491HjGyTyYgJ6-1">
          <mxGeometry x="8" y="75" width="150" height="30" as="geometry" />
        </mxCell>
        <mxCell id="e4buspF491HjGyTyYgJ6-24" style="edgeStyle=orthogonalEdgeStyle;rounded=0;orthogonalLoop=1;jettySize=auto;html=1;endArrow=block;endFill=0;" edge="1" parent="1" source="e4buspF491HjGyTyYgJ6-2">
          <mxGeometry relative="1" as="geometry">
            <mxPoint x="340" y="150" as="targetPoint" />
            <Array as="points">
              <mxPoint x="232" y="190" />
              <mxPoint x="340" y="190" />
            </Array>
          </mxGeometry>
        </mxCell>
        <mxCell id="e4buspF491HjGyTyYgJ6-2" value="Domestico" style="swimlane;whiteSpace=wrap;html=1;" vertex="1" parent="1">
          <mxGeometry x="147" y="200" width="170" height="160" as="geometry" />
        </mxCell>
        <mxCell id="e4buspF491HjGyTyYgJ6-10" value="- &lt;b&gt;String&lt;/b&gt; tipoAnimal&lt;br&gt;- &lt;b&gt;String&lt;/b&gt; especieAnimal&lt;br&gt;- &lt;b&gt;String &lt;/b&gt;vacina&lt;br&gt;- &lt;b&gt;int &lt;/b&gt;numChip" style="text;html=1;align=left;verticalAlign=middle;resizable=0;points=[];autosize=1;strokeColor=none;fillColor=none;" vertex="1" parent="e4buspF491HjGyTyYgJ6-2">
          <mxGeometry x="6" y="25" width="150" height="70" as="geometry" />
        </mxCell>
        <mxCell id="e4buspF491HjGyTyYgJ6-11" value="&lt;font style=&quot;font-size: 10px;&quot;&gt;+ comer(&lt;b&gt;String&lt;/b&gt; tipoComida)&lt;br&gt;+ tomarVacina(&lt;b&gt;String &lt;/b&gt;tipoVacina)&lt;br&gt;+ pedirComida()&lt;br&gt;&lt;/font&gt;" style="text;html=1;align=left;verticalAlign=middle;resizable=0;points=[];autosize=1;strokeColor=none;fillColor=none;" vertex="1" parent="e4buspF491HjGyTyYgJ6-2">
          <mxGeometry x="5" y="94" width="170" height="60" as="geometry" />
        </mxCell>
        <mxCell id="e4buspF491HjGyTyYgJ6-12" value="" style="endArrow=none;html=1;rounded=0;" edge="1" parent="e4buspF491HjGyTyYgJ6-2">
          <mxGeometry width="50" height="50" relative="1" as="geometry">
            <mxPoint y="96" as="sourcePoint" />
            <mxPoint x="170" y="96" as="targetPoint" />
          </mxGeometry>
        </mxCell>
        <mxCell id="e4buspF491HjGyTyYgJ6-23" style="edgeStyle=orthogonalEdgeStyle;rounded=0;orthogonalLoop=1;jettySize=auto;html=1;endArrow=block;endFill=0;" edge="1" parent="1" source="e4buspF491HjGyTyYgJ6-3">
          <mxGeometry relative="1" as="geometry">
            <mxPoint x="380" y="150" as="targetPoint" />
            <Array as="points">
              <mxPoint x="485" y="190" />
              <mxPoint x="380" y="190" />
            </Array>
          </mxGeometry>
        </mxCell>
        <mxCell id="e4buspF491HjGyTyYgJ6-3" value="Selvagem" style="swimlane;whiteSpace=wrap;html=1;" vertex="1" parent="1">
          <mxGeometry x="400" y="200" width="170" height="160" as="geometry" />
        </mxCell>
        <mxCell id="e4buspF491HjGyTyYgJ6-25" style="edgeStyle=orthogonalEdgeStyle;rounded=0;orthogonalLoop=1;jettySize=auto;html=1;endArrow=block;endFill=0;" edge="1" parent="1" source="e4buspF491HjGyTyYgJ6-4">
          <mxGeometry relative="1" as="geometry">
            <mxPoint x="210" y="430" as="targetPoint" />
          </mxGeometry>
        </mxCell>
        <mxCell id="e4buspF491HjGyTyYgJ6-4" value="GatoEstimacao" style="swimlane;whiteSpace=wrap;html=1;startSize=23;" vertex="1" parent="1">
          <mxGeometry x="50" y="480" width="170" height="160" as="geometry" />
        </mxCell>
        <mxCell id="e4buspF491HjGyTyYgJ6-17" value="-&amp;nbsp;&lt;b&gt;double&lt;/b&gt; humor" style="text;html=1;align=left;verticalAlign=middle;resizable=0;points=[];autosize=1;strokeColor=none;fillColor=none;" vertex="1" parent="e4buspF491HjGyTyYgJ6-4">
          <mxGeometry x="6" y="28" width="110" height="30" as="geometry" />
        </mxCell>
        <mxCell id="e4buspF491HjGyTyYgJ6-18" value="&lt;font style=&quot;font-size: 10px;&quot;&gt;+ comer(&lt;b&gt;String&lt;/b&gt; tipoComida)&lt;br&gt;+ pedirComida()&lt;br&gt;+ miar()&lt;br&gt;+ dormir()&lt;br&gt;+ naoMeToca()&lt;br&gt;+ tomarSol()&lt;br&gt;&lt;/font&gt;" style="text;html=1;align=left;verticalAlign=middle;resizable=0;points=[];autosize=1;strokeColor=none;fillColor=none;" vertex="1" parent="e4buspF491HjGyTyYgJ6-4">
          <mxGeometry x="5" y="58" width="150" height="100" as="geometry" />
        </mxCell>
        <mxCell id="e4buspF491HjGyTyYgJ6-19" value="" style="endArrow=none;html=1;rounded=0;" edge="1" parent="e4buspF491HjGyTyYgJ6-4">
          <mxGeometry width="50" height="50" relative="1" as="geometry">
            <mxPoint y="56" as="sourcePoint" />
            <mxPoint x="170" y="56" as="targetPoint" />
          </mxGeometry>
        </mxCell>
        <mxCell id="e4buspF491HjGyTyYgJ6-21" value="&lt;font style=&quot;font-size: 10px;&quot;&gt;+ comer(&lt;b&gt;String&lt;/b&gt; tipoComida)&lt;br&gt;+ pedirComida()&lt;br&gt;+ lati()&lt;br&gt;+ dormir()&lt;br&gt;+ mostrarBarriga()&lt;br&gt;+ passear()&lt;br&gt;&lt;/font&gt;" style="text;html=1;align=left;verticalAlign=middle;resizable=0;points=[];autosize=1;strokeColor=none;fillColor=none;" vertex="1" parent="e4buspF491HjGyTyYgJ6-4">
          <mxGeometry x="225" y="83" width="150" height="100" as="geometry" />
        </mxCell>
        <mxCell id="e4buspF491HjGyTyYgJ6-22" value="" style="endArrow=none;html=1;rounded=0;" edge="1" parent="e4buspF491HjGyTyYgJ6-4">
          <mxGeometry width="50" height="50" relative="1" as="geometry">
            <mxPoint x="220" y="86" as="sourcePoint" />
            <mxPoint x="390" y="86" as="targetPoint" />
          </mxGeometry>
        </mxCell>
        <mxCell id="e4buspF491HjGyTyYgJ6-26" style="edgeStyle=orthogonalEdgeStyle;rounded=0;orthogonalLoop=1;jettySize=auto;html=1;endArrow=block;endFill=0;" edge="1" parent="1" source="e4buspF491HjGyTyYgJ6-5">
          <mxGeometry relative="1" as="geometry">
            <mxPoint x="265" y="430" as="targetPoint" />
            <Array as="points">
              <mxPoint x="355" y="455" />
              <mxPoint x="266" y="455" />
              <mxPoint x="266" y="440" />
              <mxPoint x="265" y="440" />
            </Array>
          </mxGeometry>
        </mxCell>
        <mxCell id="e4buspF491HjGyTyYgJ6-5" value="CachorroEstimacao" style="swimlane;whiteSpace=wrap;html=1;" vertex="1" parent="1">
          <mxGeometry x="270" y="480" width="170" height="180" as="geometry" />
        </mxCell>
        <mxCell id="e4buspF491HjGyTyYgJ6-20" value="- &lt;b&gt;int &lt;/b&gt;numChip&lt;br&gt;- &lt;b&gt;double&lt;/b&gt; humor&lt;br&gt;- &lt;b&gt;double&lt;/b&gt;&amp;nbsp;estadoRabo" style="text;html=1;align=left;verticalAlign=middle;resizable=0;points=[];autosize=1;strokeColor=none;fillColor=none;" vertex="1" parent="e4buspF491HjGyTyYgJ6-5">
          <mxGeometry x="5" y="25" width="140" height="60" as="geometry" />
        </mxCell>
        <mxCell id="e4buspF491HjGyTyYgJ6-8" value="" style="endArrow=none;html=1;rounded=0;" edge="1" parent="1">
          <mxGeometry width="50" height="50" relative="1" as="geometry">
            <mxPoint x="280" y="110" as="sourcePoint" />
            <mxPoint x="430" y="110" as="targetPoint" />
          </mxGeometry>
        </mxCell>
        <mxCell id="e4buspF491HjGyTyYgJ6-14" value="- &lt;b&gt;String&lt;/b&gt; tipoAnimal&lt;br&gt;- &lt;b&gt;String&lt;/b&gt; especieAnimal&lt;br&gt;- &lt;b&gt;String &lt;/b&gt;tipoHabitat&lt;br&gt;- &lt;b&gt;int &lt;/b&gt;numChip" style="text;html=1;align=left;verticalAlign=middle;resizable=0;points=[];autosize=1;strokeColor=none;fillColor=none;" vertex="1" parent="1">
          <mxGeometry x="406" y="225" width="150" height="70" as="geometry" />
        </mxCell>
        <mxCell id="e4buspF491HjGyTyYgJ6-15" value="&lt;font style=&quot;font-size: 10px;&quot;&gt;+ comer(&lt;b&gt;String&lt;/b&gt; tipoComida)&lt;br&gt;+ cacarComida()&lt;br&gt;+ fugirPredador()&lt;br&gt;&lt;/font&gt;" style="text;html=1;align=left;verticalAlign=middle;resizable=0;points=[];autosize=1;strokeColor=none;fillColor=none;" vertex="1" parent="1">
          <mxGeometry x="405" y="294" width="150" height="60" as="geometry" />
        </mxCell>
        <mxCell id="e4buspF491HjGyTyYgJ6-16" value="" style="endArrow=none;html=1;rounded=0;" edge="1" parent="1">
          <mxGeometry width="50" height="50" relative="1" as="geometry">
            <mxPoint x="400" y="296" as="sourcePoint" />
            <mxPoint x="570" y="296" as="targetPoint" />
          </mxGeometry>
        </mxCell>
        <mxCell id="e4buspF491HjGyTyYgJ6-28" style="edgeStyle=orthogonalEdgeStyle;rounded=0;orthogonalLoop=1;jettySize=auto;html=1;" edge="1" parent="1" source="e4buspF491HjGyTyYgJ6-27">
          <mxGeometry relative="1" as="geometry">
            <mxPoint x="240" y="360" as="targetPoint" />
          </mxGeometry>
        </mxCell>
        <mxCell id="e4buspF491HjGyTyYgJ6-27" value="brincar" style="rounded=0;whiteSpace=wrap;html=1;" vertex="1" parent="1">
          <mxGeometry x="180" y="400" width="120" height="30" as="geometry" />
        </mxCell>
      </root>
    </mxGraphModel>
  </diagram>
</mxfile>
